# xmcd
#
# Track frame offsets: 
#        150
#        20557
#        39225
#        53735
#        70422
#        88512
#        101530
#        117700
#        133747
#        145615
#        174540
#
# Disc length: 2625 seconds
#
# Revision: 0
# Processed by: cddbd v1.5.2PL0 Copyright (c) Steve Scherf et al.
# Submitted via: ExactAudioCopy v1.0b3
#
DISCID=960a3f0b
DTITLE=Carol Douglas - The Carol Douglas Album
DYEAR=1975
DGENRE=Disco
TTITLE0=Doctor's Orders
TTITLE1=A Friend In Need
TTITLE2=Baby, Don't Let This Good Love Die
TTITLE3=Take Me (Make Me Lose Control)
TTITLE4=A Hurricane Is Coming Tonite
TTITLE5=I Feel In Love With Love
TTITLE6=All Night Long
TTITLE7=Will We Make It Tonight
TTITLE8=Boy, You Know Just What I'm After
TTITLE9=My Simple Heart
TTITLE10=Doctor's Order (Extended Mix)
EXTD=
EXTT0=
EXTT1=
EXTT2=
EXTT3=
EXTT4=
EXTT5=
EXTT6=
EXTT7=
EXTT8=
EXTT9=
EXTT10=
PLAYORDER=
